<svg width="50" height="50" viewBox="0 0 50 50" fill="none" xmlns="http://www.w3.org/2000/svg">
<rect x="50" y="50" width="50" height="50" rx="25" transform="rotate(-180 50 50)" fill="white" fill-opacity="0.1"/>
<rect x="49.5" y="49.5" width="49" height="49" rx="24.5" transform="rotate(-180 49.5 49.5)" stroke="white" stroke-opacity="0.2"/>
<path d="M32 25.75C32.4142 25.75 32.75 25.4142 32.75 25C32.75 24.5858 32.4142 24.25 32 24.25L32 25.75ZM16.4697 24.4697C16.1768 24.7626 16.1768 25.2374 16.4697 25.5303L21.2426 30.3033C21.5355 30.5962 22.0104 30.5962 22.3033 30.3033C22.5962 30.0104 22.5962 29.5355 22.3033 29.2426L18.0607 25L22.3033 20.7574C22.5962 20.4645 22.5962 19.9896 22.3033 19.6967C22.0104 19.4038 21.5355 19.4038 21.2426 19.6967L16.4697 24.4697ZM32 24.25L17 24.25L17 25.75L32 25.75L32 24.25Z" fill="white" fill-opacity="0.2"/>
</svg>
